<?xml version="1.0" encoding="UTF-8"?>
<svg id="Layer_2" data-name="Layer 2" xmlns="http://www.w3.org/2000/svg" viewBox="0 0 806.97 800.05">
  <defs>
    <style>
      .cls-1 {
        fill: #fefefe;
      }

      .cls-2 {
        fill: #feeb3b;
      }
    </style>
  </defs>
  <g id="Layer_1-2" data-name="Layer 1">
    <g id="layer1">
      <path d="M528,360.06h0c30.5,76.45-6.76,163.15-83.21,193.65h0c-76.45,30.5-163.15-6.76-193.65-83.21h0c-30.5-76.45,6.76-163.15,83.21-193.65h0c76.45-30.5,163.15,6.76,193.65,83.21h0M498.32,371.9h0c-23.96-60.06-92.07-89.33-152.13-65.37h0c-60.06,23.96-89.33,92.07-65.37,152.13h0c23.96,60.06,92.07,89.33,152.13,65.37h0c60.06-23.96,89.33-92.07,65.37-152.13Z"/>
      <path d="M383.4,270.45h0c-11.64-46.24-25.06-97.96,1.89-157.45h0c20.96-46.26,69.15-101.86,107.55-111.48h0c8.54-2.14,18.19-2.43,27.29,1.75h0c43.37,19.93,32.88,125.23,19.29,176.74h0c-16.27,61.69-46.05,91.48-73.7,119.21-6.23,6.25-16.34,6.26-22.59.03s-6.26-16.34-.03-22.59h0c26.78-26.86,51.42-51.65,65.43-104.8h0c16.7-63.32,12.34-133.1-1.74-139.56h0c-.5-.23-2.22-.78-6.2.21h0c-23.97,6-66.53,50.23-86.21,93.67h0c-21.84,48.21-11.81,89.6-.01,136.46,2.15,8.56-3.04,17.24-11.59,19.39-8.56,2.15-17.24-3.04-19.39-11.59Z"/>
      <path d="M454.91,293.75h0c41.06-45.97,85.1-95.73,142.65-119.67h0c9.97-4.15,20.28-7.5,30.54-10.07h0c40.55-10.15,105.72-12.28,115.6,27.19h0c.11.45.22.93.32,1.38h0c8.16,39.55-59.1,98.83-99.03,128.58h0c-46.04,34.3-81.98,48.56-116.56,62.32-8.2,3.26-17.49-.74-20.75-8.94-3.26-8.2.74-17.49,8.94-20.75h0c34.05-13.54,66.75-26.56,109.28-58.25h0c48.64-36.24,89.89-81.64,86.83-96.5h0s-.01-.06-.02-.08h0c-1.09-4.35-26.39-16.58-76.85-3.95h0c-8.81,2.21-17.6,5.07-26.02,8.57h0c-49.59,20.63-88.85,64.15-131.09,111.45-5.88,6.58-15.98,7.15-22.56,1.27-6.58-5.88-7.15-15.98-1.27-22.56Z"/>
      <path d="M535.74,427.77h0s.3.1.3.1h0c52.78,17.17,102.42,33.13,150.42,32.68h0c16.05-.15,31.89-2.15,45.81-5.63h0c30.82-7.71,42-19.59,42.68-25.79h0c1.38-12.58-28.09-46.17-80.34-56.15h0c-35.69-6.82-76.71-.07-121.58,11.16h0c-14.36,3.59-28.84,7.57-43.55,11.61-8.51,2.34-17.3-2.67-19.63-11.18s2.67-17.3,11.18-19.63h0c14.65-4.02,29.48-8.09,44.26-11.79h0c45.31-11.34,92.25-19.78,135.34-11.54h0c51.97,9.93,110.68,49.2,106.1,91.02h0c-3.28,29.9-37.49,45.99-66.69,53.3h0c-16.52,4.13-34.87,6.42-53.26,6.59h0c-54.18.51-108.96-17.44-160.6-34.24h0s-.3-.1-.3-.1c-8.4-2.73-12.99-11.75-10.26-20.14s11.74-12.98,20.13-10.25Z"/>
      <path d="M491.55,524.91h0s-2.94-5.99-2.94-5.99c29.89,38.02,58.43,74.18,101.42,105.04h0c39.32,28.22,82.52,46.33,99.15,42.17h0c1.89-.47,2.38-1.05,2.49-1.18h0c7.77-9.11-5.14-66.05-45.26-111.22h0c-35.02-39.43-82.4-56.07-134.54-74.01-8.34-2.87-12.78-11.96-9.91-20.3,2.87-8.34,11.96-12.78,20.3-9.91h0c50.91,17.52,106.58,36.34,148.03,83.01h0c36.35,40.93,73.33,120.71,45.69,153.15h0c-5.25,6.16-12.07,9.7-19.06,11.45h0c-33.08,8.28-88.37-20.53-125.53-47.21h0c-47.15-33.84-78.21-73.47-107.91-111.25-1.39-1.77-2.39-3.81-2.94-6h0c-2.14-8.56,3.06-17.23,11.62-19.38s17.23,3.06,19.38,11.62Z"/>
      <path d="M377.54,558.36h0c-.27,33.56-.51,65.61,11.6,111.51h0c13.2,50.03,35.38,95.33,46.66,98.27h0s-.17-.04-.43-.04h0c-.23,0-.41.03-.49.06h0s-.04.01-.04.01h0c10.11-3.34,29.64-48.35,34.89-100.95h0c4.91-49.15-5.24-88.53-16.19-130.54-2.23-8.54,2.89-17.26,11.43-19.49,8.54-2.23,17.26,2.89,19.49,11.43h0c10.9,41.83,22.6,86.28,17.06,141.77h0c-4.55,45.58-23.25,117.06-56.65,128.11h0c-.73.24-1.48.46-2.24.65h0c-2.23.56-4.56.88-6.96.9h0c-2.75.03-5.4-.34-7.91-.99h0c-33.59-8.74-58.68-80.02-69.5-121.04h0c-13.25-50.22-12.94-85.82-12.66-119.92.07-8.82,7.28-15.92,16.1-15.84s15.92,7.28,15.84,16.1Z"/>
      <path d="M292.68,514.01h0c-31.35,32.19-65.69,67.85-122.95,82.18h0c-1.47.37-2.97.72-4.47,1.06h0c-52.07,11.78-144.68,8.33-162.32-34.25h0c-18.37-44.36,53.45-101.09,97.52-124.87h0c21.02-11.34,41.32-18.7,61.08-23.64h0c29.11-7.29,57.1-9.33,83.62-11.3,8.62-.64,16.13,5.83,16.76,14.45s-5.83,16.13-14.45,16.76h0c-26.85,1.99-52.22,3.91-78.33,10.45h0c-17.49,4.38-35.31,10.84-53.82,20.83h0c-54.05,29.16-89.13,71.69-83.47,85.35h0c6.39,15.43,68.73,28.77,126.5,15.7h0c1.28-.29,2.52-.59,3.78-.9h0c47.61-11.92,76.37-41.05,108.12-73.65,6.03-6.19,15.94-6.32,22.13-.29s6.32,15.94.29,22.13Z"/>
      <path d="M256.39,407.54h0c1.33,5.31-.22,10.94-4.07,14.82s-9.47,5.48-14.79,4.19h0s-.02,0-.02,0h0c-49.78-12.06-101.6-24.55-149.08-48.07h0c-37.99-18.82-101.61-59.22-81.36-100.08h0c.19-.37.37-.74.57-1.1h0c9.59-17.82,34.09-28.35,56.88-34.05h0c27.36-6.85,60.9-8.87,89.93-3.44h0c55.71,10.42,92.25,47.98,125.01,81.12,6.08,6.15,6.02,16.06-.13,22.13-6.15,6.08-16.06,6.02-22.13-.13h0c-33.82-34.21-63.86-64.01-108.51-72.36h0c-24.03-4.5-52.99-2.86-76.58,3.04h0c-22.61,5.66-34.33,13.71-36.92,18.52h0c-.03.06-.06.11-.09.17h0c-3.49,7.05,14.69,32.11,67.21,58.14h0c43.82,21.71,92.16,33.49,142.55,45.7h0s.02,0,.02,0l-18.87,19.01h0c-2.1-8.39,3-16.88,11.38-18.98,8.38-2.1,16.88,3,18.98,11.38Z"/>
      <path d="M282.15,327.63h0c-36.81-36.77-76.61-76.21-96.61-135.83h0c-17.43-51.96-24.87-141.79,14.46-161.95h0c2.41-1.24,4.92-2.16,7.48-2.81h0c39.49-9.88,93.75,48.64,122.44,92.92h0c33.97,52.43,47.59,106.87,60.64,158.61,2.11,8.38-2.96,16.89-11.34,19-8.38,2.11-16.89-2.96-19-11.34h0c-13.18-52.24-25.8-101.77-56.56-149.25h0c-32.72-50.5-74.53-83.09-88.57-79.58h0c-.33.08-.59.18-.8.3h0c-12.03,6.17-18.96,64.82.94,124.14h0c17.33,51.67,51.7,86.32,89.05,123.64,6.11,6.11,6.12,16.02.01,22.13-6.11,6.11-16.02,6.12-22.13.01Z"/>
      <path d="M353.03,351.46h0l-.13,35.84c-.03,8.64-7.06,15.62-15.7,15.59s-15.62-7.06-15.59-15.7h0l.13-35.84c.03-8.64,7.06-15.62,15.7-15.59,8.64.03,15.62,7.06,15.59,15.7Z"/>
      <path d="M446.25,348.33h0l-.22,39.36c-.05,8.64-7.09,15.61-15.74,15.56s-15.61-7.09-15.56-15.74h0l.22-39.36c.05-8.64,7.09-15.61,15.74-15.56,8.64.05,15.61,7.09,15.56,15.74Z"/>
      <path d="M401.42,473.36h0s.02,0,.05-.01h.05s.04-.02.04-.02c.03,0,.06-.02.1-.02l.1-.03s.05-.01.09-.02c.03,0,.04,0,.04-.01h0s0,0,0,0h0s0,0,.02,0c.04,0,.11-.03.22-.06.03,0,.07-.02.14-.03.04-.01.07-.02.08-.02s.02,0,.02,0l-.95.24"/>
      <path d="M332.39,444.95h0l3.32,4.23-.46-.55,3.62,3.98-.5-.51,3.89,3.71-.54-.48,4.15,3.42-.57-.44,4.38,3.12-.6-.39,4.59,2.8-.62-.35,4.78,2.46-.65-.3,4.95,2.12-.67-.26,5.08,1.76-.68-.21,5.2,1.39-.7-.16,5.28,1.01-.71-.11,5.34.63-.71-.06,5.37.25h-.72s5.38-.14,5.38-.14l-.7.04,5.16-.49-.68.09,5.11-.85-.68.14,5.04-1.2-.67.18,4.95-1.54-.65.23,4.83-1.88-.63.27,4.69-2.21-.61.31,4.53-2.52-.59.36,4.34-2.83-.56.4,4.14-3.12-.54.43,3.91-3.4-.5.47,3.67-3.66-.47.5,3.41-3.9-.44.53,3.13-4.13-.4.56,2.84-4.34c3.03-4.62,9.23-5.91,13.86-2.88,4.62,3.03,5.91,9.23,2.88,13.86h0l-2.84,4.34c-.13.19-.26.38-.4.56h0l-3.13,4.13c-.14.18-.28.36-.44.53h0l-3.41,3.9c-.15.17-.31.34-.47.5h0l-3.67,3.66c-.16.16-.33.32-.5.47h0l-3.91,3.4c-.17.15-.35.3-.54.43h0l-4.14,3.12c-.18.14-.37.27-.56.4h0l-4.34,2.83c-.19.13-.39.24-.59.36h0l-4.53,2.52c-.2.11-.41.22-.61.31h0l-4.69,2.21c-.21.1-.42.19-.63.27h0l-4.83,1.88c-.21.08-.43.16-.65.23h0l-4.95,1.54c-.22.07-.44.13-.67.18h0l-5.04,1.2c-.22.05-.45.1-.68.14h0l-5.11.85c-.23.04-.45.07-.68.09h0l-5.16.49c-.23.02-.47.04-.7.04h0l-5.38.13c-.24,0-.48,0-.72,0h0l-5.37-.25c-.24-.01-.48-.03-.71-.06h0l-5.34-.63c-.24-.03-.47-.06-.71-.11h0l-5.28-1.01c-.23-.04-.47-.1-.7-.16h0l-5.2-1.39c-.23-.06-.46-.13-.68-.21h0l-5.08-1.76c-.23-.08-.45-.16-.67-.26h0l-4.95-2.12c-.22-.09-.44-.2-.65-.3h0l-4.78-2.46c-.21-.11-.42-.23-.62-.35h0l-4.59-2.8c-.2-.12-.4-.26-.6-.39h0l-4.38-3.12c-.19-.14-.38-.28-.57-.44h0l-4.15-3.42c-.18-.15-.36-.31-.54-.48h0l-3.89-3.71c-.17-.16-.34-.34-.5-.51h0l-3.62-3.98c-.16-.18-.31-.36-.46-.55h0l-3.32-4.23c-3.41-4.35-2.66-10.64,1.69-14.05s10.64-2.66,14.05,1.69Z"/>
      <path class="cls-2" d="M333.64,336.47c1.22-.3,2.49-.46,3.8-.46h0c8.5.03,15.37,6.94,15.34,15.45l-.13,35.84c-.03,7.19-4.97,13.21-11.64,14.88-1.22.3-2.49.46-3.8.46-8.5-.03-15.37-6.95-15.34-15.45l.13-35.84c.03-7.19,4.97-13.21,11.64-14.88ZM426.85,333.31c1.23-.31,2.51-.47,3.84-.46,8.5.05,15.35,6.98,15.3,15.48l-.22,39.36c-.04,7.18-4.99,13.18-11.64,14.84-1.23.31-2.51.47-3.84.46-8.5-.05-15.35-6.98-15.3-15.48l.22-39.36c.04-7.18,4.99-13.18,11.64-14.84ZM322.15,441.67c3.62-.9,7.59.32,10.04,3.43l3.1,3.95s.03.04.05.05h0s3.1,3.41,3.1,3.41h.01s3.37,3.23,3.37,3.23h.01s3.6,2.98,3.6,2.98h.01s3.8,2.72,3.8,2.72c.02.01.04.02.06.03h0s3.94,2.4,3.94,2.4c.02.01.04.02.06.03h0s4.1,2.12,4.1,2.12c.02.01.04.02.06.02h0s4.25,1.82,4.25,1.82c.02,0,.04.01.06.02h0s4.37,1.51,4.37,1.51h.02s4.5,1.21,4.5,1.21h.02s4.58.88,4.58.88h.02s4.63.55,4.63.55c.02,0,.04,0,.06,0h0s4.63.22,4.63.22c.02,0,.04,0,.05,0h0s4.64-.11,4.64-.11c.02,0,.04,0,.06,0h-.01s4.44-.42,4.44-.42c.01,0,.03,0,.04,0h0s4.41-.73,4.41-.73c0,0,.01,0,.02,0,0,0,.01,0,.02,0h0s4.34-1.03,4.34-1.03h0s.02,0,.03-.01h0s4.28-1.33,4.28-1.33c0,0,.02,0,.02,0h0s4.19-1.63,4.19-1.63c0,0,.01,0,.02,0h0s4.07-1.91,4.07-1.91c0,0,.01,0,.02,0h0s3.93-2.19,3.93-2.19c0,0,.01,0,.02-.01h0s3.76-2.45,3.76-2.45h.01s3.59-2.72,3.59-2.72h.01s3.39-2.96,3.39-2.96h.01s3.18-3.18,3.18-3.18c0,0,0,0,.01-.01h0s2.96-3.38,2.96-3.38c0,0,0-.01.01-.02h0s2.71-3.58,2.71-3.58h.01s2.65-4.06,2.65-4.06c1.4-2.13,3.49-3.54,5.78-4.11,2.55-.64,5.34-.25,7.71,1.3,4.5,2.95,5.76,8.99,2.81,13.5l-2.84,4.34h0c-.12.19-.25.37-.39.55l-3.13,4.13c-.14.18-.28.35-.42.52h0s-3.41,3.9-3.41,3.9h0c-.15.17-.3.33-.46.49l-3.67,3.66c-.16.16-.32.31-.49.46h0s-3.91,3.4-3.91,3.4h0s0,0,0,0c-.17.15-.34.28-.52.42l-4.14,3.12c-.18.14-.36.26-.55.39l-4.34,2.83c-.19.12-.38.24-.57.35l-4.53,2.52c-.2.11-.39.21-.6.31l-4.69,2.21c-.21.1-.4.18-.62.26l-4.83,1.88c-.21.08-.42.15-.63.22h0s-4.95,1.54-4.95,1.54c-.17.05-.35.1-.53.15-.07.02-.05.01-.12.03h0s-5.04,1.2-5.04,1.2h0c-.22.05-.44.1-.66.13l-5.11.85c-.22.04-.44.07-.67.09l-5.16.49h0s0,0,0,0h0c-.22.02-.46.03-.68.04h0s-5.38.13-5.38.13c-.23,0-.47,0-.7,0h0s-5.37-.25-5.37-.25h0s0,0,0,0h0c-.23-.01-.46-.03-.69-.06l-5.34-.63c-.23-.03-.46-.06-.69-.11l-5.28-1.01h0c-.23-.05-.45-.1-.68-.16l-5.2-1.39c-.23-.06-.44-.13-.67-.2h0s-5.08-1.76-5.08-1.76h0s0,0,0,0h0c-.21-.07-.44-.16-.65-.25h0s-4.95-2.12-4.95-2.12h0c-.22-.09-.42-.19-.63-.3l-4.78-2.46c-.21-.11-.41-.22-.61-.34l-4.59-2.8c-.2-.12-.39-.25-.58-.38l-4.38-3.12c-.19-.13-.37-.28-.55-.42l-4.15-3.42h0c-.18-.15-.35-.3-.52-.46l-3.89-3.71c-.17-.16-.33-.33-.49-.5l-3.62-3.98h0s0,0,0,0h0c-.16-.17-.3-.34-.44-.52l-3.32-4.23c-3.33-4.23-2.59-10.36,1.64-13.69h0s0,0,0,0h0c1.11-.87,2.35-1.46,3.64-1.79ZM361.22,301.4c-5.08,1.27-10.13,2.9-15.13,4.89h0c-60.19,24.02-89.52,92.28-65.51,152.47,14.56,36.51,45.4,61.66,80.84,70.45.04,0,.08.01.12,0h0c1.68-.11,3.41.05,5.13.53,1.08.3,2.1.71,3.06,1.21.04.02.09.03.13.03h0c15.65,2.68,31.99,2.22,48.07-1.81,5.08-1.27,10.13-2.9,15.13-4.89,0,0,0,0,0,0h0c60.19-24.01,89.53-92.27,65.52-152.47-22.02-55.2-81.25-84.44-137.34-70.41Z"/>
      <path class="cls-1" d="M635.79,194.76c-8.82,2.21-17.63,5.08-26.06,8.59h0c-45.74,19.03-82.69,57.5-121.25,100.42-.07.08-.09.21-.03.3.03.05.07.08.12.1h0c14.37,12.79,26.44,28.54,35.18,46.8.05.11.18.17.29.14,0,0,.02,0,.02,0,0,0,0,0,.01,0h0c31.47-12.59,62.49-25.93,101.98-55.35,48.57-36.18,90.03-81.7,86.92-96.75h0s0-.01,0-.01h0s-.01-.06-.02-.08h0c-1.16-4.63-26.77-16.75-77.16-4.14Z"/>
      <path class="cls-1" d="M500.54,32.27c-24.09,6.03-66.69,50.35-86.38,93.81,0,.02-.01.04-.02.05h0c-21.85,48.28-11.8,89.73,0,136.58.48,1.9.59,3.8.38,5.63,0,.08.02.17.09.22.05.04.12.07.18.06h0c9.79,1.69,19.37,4.36,28.59,7.94.05.02.1.02.15,0,.04,0,.08-.03.11-.06,0,0,0,0,.01-.01h0c26.66-26.74,51.18-51.58,65.16-104.57,16.67-63.22,12.43-133.29-1.88-139.86-.57-.26-2.35-.81-6.37.2Z"/>
      <path class="cls-1" d="M215.02,57.16c-.35.09-.63.2-.86.32h0c-12.25,6.3-19.06,65.19.82,124.45,16.24,48.42,47.42,81.91,81.97,116.59.06.06.16.09.24.07h0s.1-.05.1-.05c11.02-8.7,23.46-15.98,37.16-21.44,0,0,0,0,0,0h0c6.34-2.53,12.74-4.59,19.18-6.2.84-.21,1.7-.42,2.54-.61h0c.09-.02.16-.09.18-.18.01-.04.01-.09,0-.13h0c-11.89-46.32-24.89-90.54-52.48-133.12-32.69-50.45-74.6-83.25-88.85-79.69Z"/>
      <path class="cls-1" d="M72.05,273.35c-22.61,5.66-34.44,13.73-37.08,18.65h0c-.03.06-.06.12-.09.18h0c-3.62,7.33,14.93,32.51,67.33,58.48,42.97,21.29,90.28,33.03,139.58,44.98.04,0,.08,0,.12,0,.04-.01.09-.03.12-.07.04-.04.06-.09.07-.15h0c2.43-17.94,8.12-35.26,16.69-51.08h0s.06-.09.07-.14c.01-.09-.02-.18-.09-.23h0s0,0,0,0c-.47-.38-.93-.79-1.37-1.23-33.81-34.2-63.91-64.06-108.64-72.43-24.07-4.5-53.07-2.87-76.69,3.04Z"/>
      <path class="cls-1" d="M169.09,444.61c-17.51,4.38-35.35,10.85-53.88,20.85h0c-53.97,29.12-89.34,71.77-83.58,85.67,6.48,15.65,69.06,28.91,126.79,15.85,0,0,0,0,0,0,0,0,.01,0,.01,0h0c1.27-.29,2.52-.59,3.76-.9,45.11-11.29,73.33-38.02,103.12-68.46h0s.08-.08.1-.14c.02-.07,0-.15-.03-.21-5.47-8.3-10.18-17.27-14-26.86-4.66-11.69-7.74-23.61-9.33-35.53h0s0-.07,0-.1c-.03-.12-.14-.2-.27-.19-24.75,1.86-48.4,3.95-72.68,10.03Z"/>
      <path class="cls-1" d="M377.44,563.61c-.11.03-.19.13-.19.25-.22,31.62.2,62.66,11.65,106.07,12.99,49.24,34.74,94.13,46.32,98.29.05.02.1.02.15,0,.02,0,.03,0,.05-.02h0c10.39-4.62,29.4-49.23,34.57-100.97,4.45-44.6-3.48-81.16-13.15-118.89-.03-.12-.15-.2-.28-.19h0s-.09.03-.09.03c-3.81,1.91-7.73,3.67-11.76,5.28h0s0,0,0,0h0c-6.34,2.53-12.74,4.59-19.18,6.2-15.99,4-32.18,5.23-47.98,3.93h-.08s0,0,0,0Z"/>
      <path d="M376.66,555.55h0c-15.18,42.57-31.1,87.44-68.28,133.8h0c-30.06,37.47-77.13,79.6-110.27,87.89h0c-6.59,1.65-14.07,2.37-21.38.34h0c-.86-.24-1.71-.51-2.54-.82h0c-2.45-.91-4.73-2.1-6.84-3.56h0c-24.5-16.89-18.6-62.37-9.54-95.09h0c3.64-13.14,8.46-26.67,14.23-39.76h0c24.07-54.55,64.82-101.22,103.54-145.74,5.67-6.52,15.56-7.21,22.08-1.54,6.52,5.67,7.21,15.56,1.54,22.08h0c-39.37,45.28-76.7,88.4-98.52,137.84h0c-5.17,11.72-9.47,23.81-12.71,35.48h0c-10.85,39.14-6.05,58.77-2.86,60.97h0s-.04-.02-.05-.03h0s0,0,.02,0h0c.25.07,1.83.36,5.42-.54h0c22.28-5.57,63.75-40.09,93.45-77.11h0c33.55-41.82,48.02-82.13,63.22-124.73,2.9-8.14,11.86-12.39,20-9.48,8.14,2.9,12.39,11.86,9.48,20Z"/>
      <path class="cls-1" d="M288.67,524.67c-.1.02-.18.08-.25.15-35.45,40.97-68.27,80.84-88.19,125.97h0c-5.18,11.74-9.49,23.85-12.73,35.54-10.79,38.96-6.2,58.97-2.7,61.47.07.05.15.08.23.09h0c.49.11,2.17.3,5.58-.56,22.44-5.62,64-40.25,93.71-77.28,0,0,0,0,0,0h0c30.46-37.98,45.22-74.7,59.04-112.97h0c.05-.08.07-.17.07-.27,0-.2-.14-.37-.33-.43-19.91-6.57-38.36-17.3-53.99-31.61-.12-.11-.28-.15-.44-.11h0Z"/>
      <path class="cls-1" d="M572.97,383.85c-11.89,2.98-23.87,6.21-35.99,9.53-.16.04-.25.2-.21.36h0c1.71,11.65,2.01,23.31.98,34.76,0,.1.03.19.1.25.05.04.11.07.17.07h0c52,16.91,101.03,32.47,148.45,32.03h0c16.07-.15,31.94-2.16,45.87-5.64,30.8-7.71,42.2-19.62,42.91-26.04,1.41-12.85-28.32-46.49-80.57-56.47-35.76-6.84-76.83-.07-121.71,11.16Z"/>
      <path class="cls-1" d="M522.12,483c-.08.02-.15.08-.19.15-7.6,14.83-17.68,28.42-29.97,40.08-.1.09-.12.24-.06.36.02.04.06.08.09.1h0c28.61,36.34,56.58,70.87,97.88,100.51,39.3,28.21,82.61,46.41,99.39,42.22,1.93-.48,2.49-1.09,2.65-1.27h0c7.95-9.33-5.18-66.48-45.26-111.6-32.75-36.88-76.29-53.85-124.35-70.54-.05-.02-.11-.02-.17,0h0Z"/>
    </g>
  </g>
</svg>